<svg xmlns="http://www.w3.org/2000/svg" viewBox="0 0 160 160">
  <path d="M80 28.8c9.1 0 18.9 5.4 18.9 20.5 0 9.4-4.3 20-11 26.9l-1.4 1.4-.6 1.9c-1.9 5.9-1.8 11 .3 15.2 1.6 3.2 4.5 5.7 7.6 6.8 18.7 6.2 28.5 14.8 28.5 17.7v3.8c0 1.7-7.2 8.3-42.2 8.3s-42.5-6.6-42.5-8.3v-3.8c.1-2.8 9.6-11.2 27.9-17.8 2.8-1 6.5-3.7 8.5-8.1 1.3-2.9 2.4-7.7 0-14.1l-.6-1.7-1.3-1.3c-6.7-6.8-11-17.4-11-26.9.1-15.1 9.8-20.5 18.9-20.5m0-8.5c-14.7 0-27.4 10-27.4 29.1 0 12.5 5.8 25.1 13.4 32.9 3 7.8-2.4 10.7-3.5 11.1C47.1 99 29 109.2 29 119.2v3.8c0 13.7 26.5 16.8 51.1 16.8s50.8-3.1 50.8-16.8v-3.8c0-10.3-18.2-20.4-34.4-25.8-.7-.2-5.4-2.4-2.5-11.2 7.6-7.8 13.4-20.4 13.4-32.8 0-19.1-12.7-29.1-27.4-29.1z"/>
</svg>
